<svg width="16" height="20" viewBox="0 0 16 20" fill="none" xmlns="http://www.w3.org/2000/svg">
<path d="M12.3782 7.9578C12.4526 8.0322 12.4898 8.11777 12.4898 8.21449C12.4898 8.31122 12.4526 8.39679 12.3782 8.47119L7.17733 13.6721C7.10293 13.7465 7.01736 13.7837 6.92064 13.7837C6.82391 13.7837 6.73835 13.7465 6.66394 13.6721L1.46305 8.47119C1.38864 8.39679 1.35144 8.31122 1.35144 8.21449C1.35144 8.11777 1.38864 8.0322 1.46305 7.9578L2.02108 7.39976C2.09549 7.32536 2.18105 7.28816 2.27778 7.28816C2.37451 7.28816 2.46007 7.32536 2.53448 7.39976L6.92064 11.7859L11.3068 7.39976C11.3812 7.32536 11.4668 7.28816 11.5635 7.28816C11.6602 7.28816 11.7458 7.32536 11.8202 7.39976L12.3782 7.9578Z" fill="#111111"/>
</svg>
