<svg width="6" height="24" viewBox="0 0 6 24" fill="none" xmlns="http://www.w3.org/2000/svg">
<g clip-path="url(#clip0_2_2725)">
<path d="M5.01047 12.3934C5.0663 12.4492 5.09422 12.5134 5.09422 12.586C5.09422 12.6586 5.0663 12.7228 5.01047 12.7786L1.10772 16.6814C1.05189 16.7372 0.987679 16.7651 0.915096 16.7651C0.842512 16.7651 0.778304 16.7372 0.722471 16.6814L0.303721 16.2626C0.247887 16.2068 0.219971 16.1426 0.219971 16.07C0.219971 15.9974 0.247887 15.9332 0.303721 15.8774L3.5951 12.586L0.303721 9.29464C0.247887 9.2388 0.219971 9.17459 0.219971 9.10201C0.219971 9.02943 0.247887 8.96522 0.303721 8.90939L0.722471 8.49064C0.778304 8.4348 0.842512 8.40689 0.915096 8.40689C0.987679 8.40689 1.05189 8.4348 1.10772 8.49064L5.01047 12.3934Z" fill="#111111"/>
</g>
<defs>
<clipPath id="clip0_2_2725">
<rect width="5.36" height="22.5" fill="white" transform="matrix(1 0 0 -1 0.219971 23.2998)"/>
</clipPath>
</defs>
</svg>
